<svg width="19" height="19" viewBox="0 0 19 19" fill="none" xmlns="http://www.w3.org/2000/svg">
<path fill-rule="evenodd" clip-rule="evenodd" d="M9.20858 1.66138C4.96456 1.66138 1.53369 5.11754 1.53369 9.39329C1.53369 12.8111 3.73197 15.7042 6.78156 16.7282C7.16284 16.8052 7.3025 16.5618 7.3025 16.3571C7.3025 16.1779 7.28993 15.5635 7.28993 14.9233C5.15497 15.3842 4.71038 14.0016 4.71038 14.0016C4.36728 13.1055 3.8589 12.8752 3.8589 12.8752C3.16013 12.4016 3.9098 12.4016 3.9098 12.4016C4.68493 12.4528 5.09166 13.1952 5.09166 13.1952C5.7777 14.3728 6.88321 14.0401 7.32795 13.8352C7.39142 13.336 7.59486 12.9904 7.81087 12.7984C6.10808 12.6191 4.31653 11.9535 4.31653 8.98357C4.31653 8.1387 4.6213 7.44747 5.10422 6.90988C5.02803 6.7179 4.76112 5.92408 5.18057 4.86163C5.18057 4.86163 5.8286 4.65677 7.28978 5.65529C7.91536 5.48604 8.56051 5.39994 9.20858 5.39922C9.85661 5.39922 10.5172 5.48892 11.1272 5.65529C12.5885 4.65677 13.2366 4.86163 13.2366 4.86163C13.656 5.92408 13.389 6.7179 13.3128 6.90988C13.8084 7.44747 14.1006 8.1387 14.1006 8.98357C14.1006 11.9535 12.3091 12.6063 10.5936 12.7984C10.8732 13.0416 11.1145 13.5024 11.1145 14.2321C11.1145 15.2689 11.1019 16.1011 11.1019 16.357C11.1019 16.5618 11.2417 16.8052 11.6229 16.7284C14.6725 15.7041 16.8707 12.8111 16.8707 9.39329C16.8833 5.11754 13.4399 1.66138 9.20858 1.66138Z" fill="#757575"/>
</svg>
