<svg width="19" height="19" viewBox="0 0 19 19" fill="none" xmlns="http://www.w3.org/2000/svg">
<path d="M16.6999 3.31549V15.089C16.6999 15.3581 16.5929 15.6163 16.4026 15.8066C16.2122 15.997 15.9541 16.1039 15.6849 16.1039H3.91144C3.64226 16.1039 3.3841 15.997 3.19376 15.8066C3.00342 15.6163 2.89648 15.3581 2.89648 15.089V3.31549C2.89648 3.04631 3.00342 2.78815 3.19376 2.59781C3.3841 2.40747 3.64226 2.30054 3.91144 2.30054H15.6849C15.9541 2.30054 16.2122 2.40747 16.4026 2.59781C16.5929 2.78815 16.6999 3.04631 16.6999 3.31549V3.31549ZM6.9563 7.5783H4.92639V14.074H6.9563V7.5783ZM7.13899 5.3454C7.14006 5.19185 7.11088 5.0396 7.0531 4.89733C6.99533 4.75507 6.9101 4.62557 6.80228 4.51624C6.69446 4.40692 6.56616 4.3199 6.42471 4.26015C6.28326 4.20041 6.13143 4.16911 5.97788 4.16805H5.94135C5.62909 4.16805 5.32963 4.29209 5.10884 4.51289C4.88804 4.73368 4.764 5.03315 4.764 5.3454C4.764 5.65765 4.88804 5.95711 5.10884 6.17791C5.32963 6.3987 5.62909 6.52274 5.94135 6.52274V6.52274C6.0949 6.52652 6.2477 6.50001 6.391 6.44471C6.53431 6.38942 6.66531 6.30643 6.77654 6.20048C6.88776 6.09454 6.97701 5.96772 7.0392 5.82727C7.1014 5.68682 7.1353 5.5355 7.13899 5.38194V5.3454ZM14.6699 10.1279C14.6699 8.17509 13.4276 7.4159 12.1935 7.4159C11.7894 7.39567 11.387 7.48174 11.0266 7.66553C10.6661 7.84931 10.3602 8.1244 10.1392 8.46334H10.0824V7.5783H8.17424V14.074H10.2042V10.6191C10.1748 10.2653 10.2863 9.91413 10.5143 9.64199C10.7424 9.36986 11.0686 9.19869 11.4221 9.16568H11.4992C12.1447 9.16568 12.6238 9.57167 12.6238 10.5947V14.074H14.6537L14.6699 10.1279Z" fill="#757575"/>
</svg>
